<?xml version="1.0" standalone="no"?>
<!DOCTYPE svg PUBLIC "-//W3C//DTD SVG 1.1//EN" "http://www.w3.org/Graphics/SVG/1.1/DTD/svg11.dtd" >
<svg xmlns="http://www.w3.org/2000/svg">
<metadata>Generated by IcoMoon</metadata>
<defs>
<font id="icomoon" horiz-adv-x="1024">
<font-face units-per-em="1024" ascent="960" descent="-64" />
<missing-glyph horiz-adv-x="1024" />
<glyph unicode="&#x20;" horiz-adv-x="512" d="" />
<glyph unicode="&#xe900;" glyph-name="address" d="M305.6 198.624c3.024 3.248 8.4 7.008 15.92 10.8 14.528 7.312 35.2 13.904 60.192 19.040 4.496 0.944 14.176 2.96 11.264 17.936l-2.8 16.032c-3.744 17.6-12.8 14.16-17.632 13.184-71.584-14.496-116.544-39.616-116.544-78.24 0-58.048 111.904-90.8 252.16-90.8 140.288 0 252.192 32.752 252.192 90.784 0 38.496-44.64 63.568-115.808 78.112-5.088 1.040-15.68 2.944-18.4-12.64-1.12-6.304-2-11.472-2.704-15.472-4.336-18.288 8.48-18.288 13.84-19.44 23.792-5.056 43.52-11.424 57.52-18.496 7.52-3.792 12.928-7.536 15.952-10.8 1.44-1.552 1.6-1.856 1.6-1.264 0-3.040-16.656-14.56-49.584-24.192-40.16-11.744-95.408-18.592-154.592-18.592-59.2 0-114.448 6.848-154.608 18.592-32.032 9.376-48.656 20.544-49.536 23.936 0.096-0.128 0.448 0.32 1.552 1.52zM378.96 321.136c53.712-79.2 106.72-141.664 129.216-141.664s75.488 62.464 129.216 141.664c61.952 91.36 100.688 173.376 100.688 230.8 0 128.112-102.88 232.064-229.92 232.064-127.024 0-229.904-103.952-229.904-232.064 0-57.424 38.752-139.456 100.704-230.8zM529.248 257.296c-7.167-8.513-14.051-16.127-21.187-23.495l0.115 0.119c-5.824 5.92-13.040 13.904-21.072 23.36-21.248 25.056-45.792 57.44-68.432 90.8-56.72 83.648-92.416 159.216-92.416 203.856 0 101.712 81.504 184.064 181.92 184.064s181.92-82.352 181.92-184.064c0-44.64-35.696-120.208-92.432-203.84-22.624-33.376-47.168-65.76-68.416-90.8zM508.176 457.744c0.38-0.005 0.828-0.008 1.277-0.008 56.289 0 101.92 45.631 101.92 101.92s-45.631 101.92-101.92 101.92c-0.449 0-0.897-0.003-1.345-0.009l0.068 0.001c-56.289 0-101.92-45.631-101.92-101.92s45.631-101.92 101.92-101.92v0zM508.176 505.744c-0.276-0.005-0.602-0.008-0.929-0.008-29.779 0-53.92 24.141-53.92 53.92s24.141 53.92 53.92 53.92c0.327 0 0.652-0.003 0.978-0.009l-0.049 0.001c29.779 0 53.92-24.141 53.92-53.92s-24.141-53.92-53.92-53.92v0z" />
<glyph unicode="&#xe901;" glyph-name="home2" d="M512 928l-512-512 96-96 96 96v-416h256v192h128v-192h256v416l96-96 96 96-512 512zM512 512c-35.346 0-64 28.654-64 64s28.654 64 64 64c35.346 0 64-28.654 64-64s-28.654-64-64-64z" />
<glyph unicode="&#xe902;" glyph-name="home3" d="M1024 352l-192 192v288h-128v-160l-192 192-512-512v-32h128v-320h320v192h128v-192h320v320h128z" />
<glyph unicode="&#xe903;" glyph-name="addresslist" d="M443.648 442.848c-50.535 24.92-84.688 76.074-84.688 135.205 0 0.009 0 0.019 0 0.028v-0.002 55.68c0 82.984 67.272 150.256 150.256 150.256s150.256-67.272 150.256-150.256v0-55.664c0-0.011 0-0.024 0-0.037 0-57.887-32.738-108.127-80.708-133.216l-0.828-0.394c178.624-32.944 259.632-200.16 259.632-250.16v-62.096c0-8.837-7.163-16-16-16v0h-613.568c-8.837 0-16 7.163-16 16v0 61.92c0 49.328 78.592 212.384 251.648 248.752zM716.128 709.216v16c0 8.837 7.163 16 16 16v0h90.432c8.837 0 16-7.163 16-16v0-16c0-8.837-7.163-16-16-16v0h-90.432c-8.837 0-16 7.163-16 16v0zM716.128 597.92v16c0 8.837 7.163 16 16 16v0h90.432c8.837 0 16-7.163 16-16v0-16c0-8.837-7.163-16-16-16v0h-90.432c-8.837 0-16 7.163-16 16v0zM716.128 486.608v16c0 8.837 7.163 16 16 16v0h90.432c8.837 0 16-7.163 16-16v0-16c0-8.837-7.163-16-16-16v0h-90.432c-8.837 0-16 7.163-16 16v0zM789.568 164.176v30.096c0 6.272-4.96 23.152-14.32 42.512-12.064 24.96-29.44 50.64-50.72 73.6-53.504 57.712-123.952 91.696-209.76 91.696-85.76 0-156.224-34-209.712-91.744-21.28-22.976-38.672-48.688-50.72-73.648-9.376-19.408-14.336-36.288-14.336-42.608v-29.92h549.568zM509.216 736c-56.474 0-102.256-45.782-102.256-102.256v0-55.664c0-56.474 45.782-102.256 102.256-102.256s102.256 45.782 102.256 102.256v0 55.68c-0.009 56.462-45.778 102.231-102.239 102.24h-0.001z" />
<glyph unicode="&#xe904;" glyph-name="addto" d="M544 480h112c8.837 0 16-7.163 16-16v0-16c0-8.837-7.163-16-16-16v0h-112v-112c0-8.837-7.163-16-16-16v0h-16c-8.837 0-16 7.163-16 16v0 112h-112c-8.837 0-16 7.163-16 16v0 16c0 8.837 7.163 16 16 16v0h112v112c0 8.837 7.163 16 16 16v0h16c8.837 0 16-7.163 16-16v0-112zM512 160c159.056 0 288 128.944 288 288s-128.944 288-288 288-288-128.944-288-288 128.944-288 288-288zM512 112c-185.568 0-336 150.432-336 336s150.432 336 336 336 336-150.432 336-336-150.432-336-336-336z" />
<glyph unicode="&#xe905;" glyph-name="bianji" d="M862.709 843.957c5.827 6.027 13.985 9.769 23.017 9.769 17.673 0 32-14.327 32-32 0-9.032-3.742-17.19-9.76-23.009l-452.521-452.532c-5.791-5.791-13.792-9.373-22.629-9.373-17.675 0-32.003 14.328-32.003 32.003 0 8.837 3.582 16.838 9.373 22.629v0l452.523 452.501zM853.333 512c0 17.673 14.327 32 32 32s32-14.327 32-32v0-352c0-64.8-52.533-117.333-117.333-117.333h-576c-64.8 0-117.333 52.533-117.333 117.333v576c0 64.8 52.533 117.333 117.333 117.333h341.333c17.673 0 32-14.327 32-32s-14.327-32-32-32v0h-341.333c-29.455 0-53.333-23.878-53.333-53.333v0-576c0-29.455 23.878-53.333 53.333-53.333h576c29.455 0 53.333 23.878 53.333 53.333v0 352z" />
<glyph unicode="&#xe906;" glyph-name="camera1" d="M256 640v48c0 8.837 7.163 16 16 16v0h160c8.837 0 16-7.163 16-16v0-48h388.864c6.16 0 11.136-4.976 11.136-11.136v-441.728c0-6.15-4.986-11.136-11.136-11.136v0h-649.728c-6.15 0-11.136 4.986-11.136 11.136v0 441.728c0 6.16 4.976 11.136 11.136 11.136h68.864zM299.040 640h105.92v24.384h-105.92v-24.384zM224 224h576v368h-576v-368zM699.136 560h41.728c6.16 0 11.136-4.976 11.136-11.136v-41.728c0-6.15-4.986-11.136-11.136-11.136v0h-41.728c-6.15 0-11.136 4.986-11.136 11.136v0 41.728c0 6.16 4.976 11.136 11.136 11.136zM504 280c-70.692 0-128 57.308-128 128s57.308 128 128 128v0c70.692 0 128-57.308 128-128s-57.308-128-128-128v0zM504 328c44.183 0 80 35.817 80 80s-35.817 80-80 80v0c-44.183 0-80-35.817-80-80s35.817-80 80-80v0z" />
<glyph unicode="&#xe907;" glyph-name="cart" d="M348.112 212.768c-21.517 0-38.96-17.443-38.96-38.96s17.443-38.96 38.96-38.96v0c21.517 0 38.96 17.443 38.96 38.96s-17.443 38.96-38.96 38.96v0zM693.152 212.768c-21.517 0-38.96-17.443-38.96-38.96s17.443-38.96 38.96-38.96v0c21.517 0 38.96 17.443 38.96 38.96s-17.443 38.96-38.96 38.96v0zM269.376 767.968l-77.376-0.256c-8.816-0.027-15.952-7.18-15.952-16 0-0.017 0-0.034 0-0.051v0.003l0.048-16c0.027-8.816 7.18-15.952 16-15.952 0.017 0 0.034 0 0.051 0l48.541 0.144 50.864-472.32c0.901-8.061 7.677-14.271 15.904-14.272h408.576c8.837 0 16 7.163 16 16v0 16c0 8.837-7.163 16-16 16v0h-379.84l-3.808 35.504 401.152-0.016c0 0 0.001 0 0.001 0 7.386 0 13.603 5.005 15.445 11.808l0.026 0.112 82.144 310.944c0.339 1.229 0.533 2.64 0.533 4.096 0 8.837-7.163 16-16 16-0.002 0-0.004 0-0.005 0h-520.24l-10.112 93.936c-0.82 7.447-6.647 13.312-14.004 14.185l-0.076 0.007-1.872 0.096zM300.624 611.728h473.504l-65.232-246.96-381.68 0.016-26.592 246.944z" />
<glyph unicode="&#xe908;" glyph-name="close" d="M507.168 486.768l209.312 209.296c2.895 2.894 6.895 4.685 11.312 4.685s8.417-1.79 11.312-4.685l11.312-11.312c2.894-2.895 4.685-6.895 4.685-11.312s-1.79-8.417-4.685-11.312l-209.296-209.296 209.28-209.312c2.894-2.895 4.685-6.895 4.685-11.312s-1.79-8.417-4.685-11.312l-11.312-11.312c-2.895-2.894-6.895-4.685-11.312-4.685s-8.417 1.79-11.312 4.685l-209.296 209.296-209.296-209.28c-2.895-2.894-6.895-4.685-11.312-4.685s-8.417 1.79-11.312 4.685l-11.312 11.312c-2.894 2.895-4.685 6.895-4.685 11.312s1.79 8.417 4.685 11.312l209.296 209.312-209.296 209.296c-2.894 2.895-4.685 6.895-4.685 11.312s1.79 8.417 4.685 11.312l11.312 11.312c2.895 2.894 6.895 4.685 11.312 4.685s8.417-1.79 11.312-4.685l209.296-209.296z" />
<glyph unicode="&#xe909;" glyph-name="delete" d="M656 672h144c8.837 0 16-7.163 16-16v0-16c0-8.837-7.163-16-16-16v0h-48v-496c0-8.837-7.163-16-16-16v0h-448c-8.837 0-16 7.163-16 16v0 496h-48c-8.837 0-16 7.163-16 16v0 16c0 8.837 7.163 16 16 16v0h144v80c0 8.837 7.163 16 16 16v0h256c8.837 0 16-7.163 16-16v0-80zM608 672v48h-192v-48h192zM640 624h-320v-464h384v464h-64zM432 512h16c8.837 0 16-7.163 16-16v0-192c0-8.837-7.163-16-16-16v0h-16c-8.837 0-16 7.163-16 16v0 192c0 8.837 7.163 16 16 16v0zM576 512h16c8.837 0 16-7.163 16-16v0-192c0-8.837-7.163-16-16-16v0h-16c-8.837 0-16 7.163-16 16v0 192c0 8.837 7.163 16 16 16v0z" />
<glyph unicode="&#xe90a;" glyph-name="down" d="M830.24 619.312l11.328-11.312c2.894-2.895 4.685-6.895 4.685-11.312s-1.79-8.417-4.685-11.312l-311.12-311.136c-2.896-2.899-6.899-4.693-11.32-4.693s-8.424 1.793-11.32 4.692v0l-311.12 311.136c-2.894 2.895-4.685 6.895-4.685 11.312s1.79 8.417 4.685 11.312l11.312 11.312c2.895 2.894 6.895 4.685 11.312 4.685s8.417-1.79 11.312-4.685l288.496-288.496 288.512 288.496c2.895 2.894 6.895 4.685 11.312 4.685s8.417-1.79 11.312-4.685v0z" />
<glyph unicode="&#xe90b;" glyph-name="home" d="M267.168 505.376v-316.48h152v172.88c0 6.144 4.992 11.12 11.136 11.12h169.728c6.16 0 11.136-4.976 11.136-11.12v-172.88h136v317.504l-239.36 188.848-240.64-189.856zM219.168 467.504l-39.36-31.040c-2.696-2.14-6.149-3.433-9.903-3.433-5.079 0-9.605 2.366-12.536 6.056l-0.025 0.033-9.904 12.56c-2.14 2.696-3.433 6.149-3.433 9.903 0 5.079 2.366 9.605 6.056 12.536l0.033 0.025 347.792 274.416c2.699 2.148 6.158 3.446 9.92 3.446s7.221-1.298 9.953-3.471l-0.033 0.025 347.792-274.4c3.727-2.956 6.097-7.485 6.097-12.567 0-3.759-1.296-7.215-3.466-9.946l0.025 0.033-9.92-12.56c-2.956-3.723-7.482-6.089-12.561-6.089-3.754 0-7.207 1.293-9.936 3.458l0.033-0.025-40.624 32.048v-292.48c0-19.405-15.731-35.136-35.136-35.136v0h-505.728c-19.405 0-35.136 15.731-35.136 35.136v0 291.472zM467.168 196.896h96v128h-96v-128z" />
<glyph unicode="&#xe90c;" glyph-name="increase" d="M488 472v296c0 8.837 7.163 16 16 16v0h16c8.837 0 16-7.163 16-16v0-296h296c8.837 0 16-7.163 16-16v0-16c0-8.837-7.163-16-16-16v0h-296v-296c0-8.837-7.163-16-16-16v0h-16c-8.837 0-16 7.163-16 16v0 296h-296c-8.837 0-16 7.163-16 16v0 16c0 8.837 7.163 16 16 16v0h296z" />
<glyph unicode="&#xe90d;" glyph-name="like" d="M512 668.57l-9.405 9.405-3.938 3.828c-72.153 68.025-185.533 66.45-255.811-3.828-71.727-71.727-71.727-188.022 0-259.749l258.016-258.016c2.851-2.85 6.789-4.613 11.138-4.613s8.287 1.763 11.138 4.613l258.016 258.016c71.727 71.727 71.727 188.022 0 259.749s-188.022 71.727-259.749 0l-9.405-9.405zM465.983 647.664l3.434-3.356 42.583-42.567 42.819 42.819c24.686 24.687 58.79 39.957 96.461 39.957s71.775-15.27 96.461-39.957v0l3.135-3.245c22.804-24.321 36.812-57.13 36.812-93.21 0-37.673-15.272-71.78-39.962-96.466l-235.725-235.725-235.741 235.725c-24.763 24.699-40.083 58.853-40.083 96.587 0 75.339 61.074 136.413 136.413 136.413 34.708 0 66.388-12.962 90.464-34.309l-0.142 0.124 3.072-2.788z" />
<glyph unicode="&#xe90e;" glyph-name="loop" d="M606.896 572.464h-198.896c-92.784 0-168-75.216-168-168 0-92.8 75.216-168 168-168h224c87.2 0 158.88 66.416 167.2 151.424l0.16 1.808c0.659 8.285 7.54 14.759 15.935 14.768h17.345c8.188-0.005 14.823-6.644 14.823-14.832 0-0.377-0.014-0.751-0.042-1.121l0.003 0.049c-8.144-111.872-101.472-200.096-215.424-200.096h-224c-119.296 0-216 96.704-216 216s96.704 216 216 216h194.144l-29.456 29.456c-2.896 2.895-4.687 6.894-4.688 11.312v0 28.304c0 0.003 0 0.006 0 0.009 0 7.988 6.476 14.464 14.464 14.464 3.992 0 7.607-1.617 10.224-4.233l97.824-97.824c2.014-2.015 3.259-4.798 3.259-7.872s-1.245-5.857-3.259-7.872l-97.824-97.808c-2.617-2.615-6.232-4.233-10.224-4.233-7.988 0-14.464 6.476-14.464 14.464 0 0.003 0 0.006 0 0.009v0 28.288c0.001 4.418 1.792 8.417 4.688 11.312l34.208 34.224z" />
<glyph unicode="&#xe90f;" glyph-name="camera" d="M304 352c0-114.876 93.124-208 208-208s208 93.124 208 208-93.124 208-208 208-208-93.124-208-208zM960 704h-224c-16 64-32 128-96 128h-256c-64 0-80-64-96-128h-224c-35.2 0-64-28.8-64-64v-576c0-35.2 28.8-64 64-64h896c35.2 0 64 28.8 64 64v576c0 35.2-28.8 64-64 64zM512 68c-156.85 0-284 127.148-284 284 0 156.85 127.15 284 284 284 156.852 0 284-127.15 284-284 0-156.852-127.146-284-284-284zM960 512h-128v64h128v-64z" />
<glyph unicode="&#xe910;" glyph-name="mark" d="M630.048 572.24l191.712-27.872c12.88-1.904 24.272-10.128 29.056-23.84 3.424-11.744 0.16-24.16-8.528-32.768l-0.144-0.16-140.4-137.12 32.528-190.208c2.304-13.040-3.488-25.328-14.192-32.72-10.96-7.424-26.784-8.16-38.464-2.224l-167.632 88.4-167.28-88.384c-11.84-6.128-27.36-5.456-37.6 1.568-10.336 6.496-17.968 18-15.264 33.328l32.64 190.32-140.544 137.2c-8.912 8.848-12.448 21.968-8.048 33.744 4.416 12.56 15.616 20.832 28.608 22.784l191.856 27.952 83.488 169.648c6.080 12.080 18.928 19.264 32.32 19.264 13.6 0 26.768-7.2 32.496-19.456l83.392-169.44zM623.056 524.752c-15.821 2.173-28.954 11.979-35.717 25.521l-0.123 0.271-73.008 148.4-73.184-148.688c-6.978-13.495-19.866-23.096-35.144-25.423l-0.264-0.033-164.368-23.968 119.040-116.192c11.2-10.784 16.24-26.384 13.6-41.6l-28.096-163.904 146.416 77.376c6.325 3.316 13.818 5.262 21.766 5.262 8.070 0 15.671-2.006 22.332-5.547l-0.258 0.125 146.288-77.12-28 163.68c-2.624 15.2 2.432 30.72 13.488 41.52l119.232 116.48-164 23.84z" />
<glyph unicode="&#xe911;" glyph-name="menu" d="M473.744 418.080c8.837 0 16-7.163 16-16v0-249.728c0-8.837-7.163-16-16-16v0h-249.744c-8.837 0-16 7.163-16 16v0 249.728c0 8.837 7.163 16 16 16v0h249.744zM796.528 418.080c8.837 0 16-7.163 16-16v0-249.728c0-8.837-7.163-16-16-16v0h-249.76c-8.837 0-16 7.163-16 16v0 249.728c0 8.837 7.163 16 16 16v0h249.76zM441.744 370.080h-185.744v-185.728h185.744v185.728zM764.528 370.080h-185.76v-185.728h185.76v185.728zM676.528 752c83.947 0 152-68.053 152-152s-68.053-152-152-152v0c-83.947 0-152 68.053-152 152s68.053 152 152 152v0zM473.744 740.864c8.837 0 16-7.163 16-16v0-249.728c0-8.837-7.163-16-16-16v0h-249.744c-8.837 0-16 7.163-16 16v0 249.728c0 8.837 7.163 16 16 16v0h249.744zM676.528 704c-57.438 0-104-46.562-104-104s46.562-104 104-104v0c57.438 0 104 46.562 104 104s-46.562 104-104 104v0zM441.744 692.864h-185.744v-185.728h185.744v185.728z" />
<glyph unicode="&#xe912;" glyph-name="nickname" d="M432.56 432.832c-44.369 26.643-73.6 74.505-73.6 129.195 0 0.019 0 0.037 0 0.056v-0.003 55.68c0 82.984 67.272 150.256 150.256 150.256s150.256-67.272 150.256-150.256v0-55.664c0-0.020 0-0.043 0-0.067 0-54.051-28.555-101.432-71.401-127.882l-0.647-0.371c106.246-24.501 192.157-95.583 236.423-190.065l0.889-2.111c2.56-5.552 7.232-11.2 7.232-16.928v-4.784h0.032v-89.808c0-8.837-7.163-16-16-16v0h-608c-8.837 0-16 7.163-16 16v0 80.016l0.32 0.032c0 5.28-0.032 10.656 0.336 16.096 0.368 5.408 4.416 10.608 6.8 15.792 44.637 95.146 128.795 165.427 230.745 190.329l2.359 0.487zM240 215.072v-52.992h544v53.008c-46.582 106.179-150.787 178.999-272 178.999s-225.419-72.82-271.255-177.099l-0.745-1.9zM509.216 720c-56.474 0-102.256-45.782-102.256-102.256v0-55.664c0-56.474 45.782-102.256 102.256-102.256s102.256 45.782 102.256 102.256v0 55.68c-0.009 56.462-45.778 102.231-102.239 102.24h-0.001z" />
<glyph unicode="&#xe913;" glyph-name="search1" d="M685.6 299.664l155.152-155.168c2.894-2.895 4.685-6.895 4.685-11.312s-1.79-8.417-4.685-11.312v0l-11.312-11.328c-2.895-2.894-6.895-4.685-11.312-4.685s-8.417 1.79-11.312 4.685l-158.528 158.544c-46.009-32.143-103.116-51.36-164.711-51.36-0.155 0-0.31 0-0.465 0h0.024c-160.8 0.016-291.136 130.368-291.136 291.152s130.336 291.12 291.136 291.12c160.784 0 291.12-130.336 291.12-291.136 0-82.112-33.984-156.272-88.672-209.2zM483.136 265.744c134.272 0 243.12 108.848 243.12 243.12 0 134.288-108.848 243.136-243.12 243.136-134.288 0-243.136-108.848-243.136-243.136 0-134.272 108.848-243.12 243.136-243.12z" />
<glyph unicode="&#xe914;" glyph-name="setting" d="M439.264 752c-8.837 0-16-7.163-16-16v0-67.968c-17.759-7.849-33.041-16.842-47.13-27.348l0.634 0.452-58.912 34c-2.295 1.348-5.054 2.144-8 2.144-5.891 0-11.038-3.184-13.815-7.924l-0.041-0.075-80-138.56c-1.348-2.295-2.144-5.054-2.144-8 0-5.891 3.184-11.038 7.924-13.815l0.075-0.041 58.896-34c-0.95-8.061-1.492-17.399-1.492-26.864s0.542-18.803 1.596-27.985l-0.105 1.121-58.88-34c-4.826-2.816-8.017-7.968-8.017-13.866 0-2.28 0.477-4.45 1.337-6.413l-0.040 0.103 0.848-1.68 80-138.56c2.818-4.816 7.965-8 13.856-8 2.945 0 5.705 0.796 8.075 2.184l-0.076-0.041 58.912 34c13.455-10.048 28.737-19.036 44.972-26.273l1.524-0.607v-67.984c0-8.837 7.163-16 16-16v0h160c8.837 0 16 7.163 16 16v0 67.968c17.765 7.848 33.053 16.842 47.146 27.348l-0.634-0.452 58.912-34c2.295-1.348 5.054-2.144 8-2.144 5.891 0 11.038 3.184 13.815 7.924l0.041 0.075 80 138.56c1.35 2.296 2.147 5.058 2.147 8.006 0 5.232-2.511 9.877-6.394 12.797l-0.041 0.030-1.568 1.024-58.896 34c0.95 8.061 1.492 17.399 1.492 26.864s-0.542 18.803-1.596 27.985l0.105-1.121 58.88 34c4.826 2.816 8.017 7.968 8.017 13.866 0 2.28-0.477 4.45-1.337 6.413l0.040-0.103-0.848 1.68-80 138.56c-2.818 4.816-7.965 8-13.856 8-2.945 0-5.705-0.796-8.075-2.184l0.076 0.041-58.912-34c-13.455 10.048-28.737 19.036-44.972 26.273l-1.524 0.607v67.984c0 8.837-7.163 16-16 16v0h-160zM471.264 704h96v-67.376l28.8-12.576c13.152-5.76 25.632-12.976 37.184-21.52l25.28-18.688 58.448 33.728 48-83.136-58.368-33.68 3.472-31.2c0.762-6.467 1.197-13.959 1.197-21.552s-0.435-15.085-1.281-22.451l0.084 0.899-3.472-31.2 58.368-33.68-48-83.136-58.432 33.728-25.296-18.688c-11.552-8.544-24.032-15.76-37.184-21.52l-28.8-12.576v-67.376h-96v67.376l-28.784 12.576c-13.152 5.76-25.632 12.976-37.184 21.52l-25.28 18.688-58.448-33.728-48 83.136 58.368 33.68-3.472 31.2c-0.762 6.467-1.197 13.959-1.197 21.552s0.435 15.085 1.281 22.451l-0.084-0.899 3.472 31.2-58.368 33.68 48 83.136 58.432-33.728 25.296 18.688c10.761 8.044 22.982 15.24 35.966 21.034l1.218 0.486 28.8 12.576v67.376zM518.544 560c-61.856 0-112-50.144-112-112s50.144-112 112-112v0c61.856 0 112 50.144 112 112s-50.144 112-112 112v0zM518.544 512c35.346 0 64-28.654 64-64s-28.654-64-64-64v0c-35.346 0-64 28.654-64 64s28.654 64 64 64v0z" />
<glyph unicode="&#xe915;" glyph-name="yixiangkan" d="M356.267 842.667c59.584 0 100.021-20.843 155.819-68.16 55.787 47.317 96.235 68.16 155.819 68.16 126.261 0 212.747-76.736 248.384-202.848 0.764-2.605 1.203-5.598 1.203-8.693 0-17.675-14.328-32.003-32.003-32.003-14.58 0-26.882 9.749-30.744 23.084l-0.056 0.226c-28.331 100.256-91.413 156.235-186.773 156.235-41.536 0-70.389-15.253-117.12-55.253-2.165-1.856-14.4-12.416-17.941-15.435-5.553-4.756-12.822-7.651-20.768-7.651s-15.215 2.895-20.811 7.688l0.043-0.036c-3.541 3.019-15.787 13.579-17.952 15.435-46.72 40-75.573 55.253-117.099 55.253-126.133 0-206.933-101.035-206.933-246.763 0-110.965 113.291-248.885 343.637-408.8 5.166-3.609 11.577-5.767 18.493-5.767 7.014 0 13.51 2.22 18.823 5.995l-0.1-0.068c47.456 33.536 79.019 56.427 94.293 68.373 5.301 4.040 12.016 6.473 19.3 6.473 17.679 0 32.011-14.332 32.011-32.011 0-10.028-4.611-18.978-11.828-24.848l-0.059-0.046c-16.352-12.779-48.48-36.085-96.768-70.208-15.491-11.047-34.806-17.662-55.667-17.662-20.579 0-39.654 6.438-55.322 17.41l0.311-0.206c-246.165 170.901-371.125 323.029-371.125 461.365 0 178.325 105.909 310.763 270.933 310.763zM744.267 287.275c-0.254-0.007-0.553-0.011-0.852-0.011-8.495 0-16.216 3.318-21.936 8.729l0.015-0.014-93.184 87.84c-5.776 5.451-9.372 13.159-9.372 21.707s3.596 16.255 9.357 21.693l0.015 0.014 1.077 1.013c5.716 5.398 13.446 8.717 21.952 8.717s16.236-3.318 21.967-8.731l-0.015 0.014 70.976-66.912 140.053 132.021c5.716 5.398 13.446 8.717 21.952 8.717s16.236-3.318 21.967-8.731l-0.015 0.014 1.067-1.013c5.776-5.451 9.372-13.159 9.372-21.707s-3.596-16.255-9.357-21.693l-0.015-0.014-162.251-152.96c-5.704-5.391-13.42-8.705-21.91-8.705-0.3 0-0.599 0.004-0.897 0.012l0.044-0.001z" />
<glyph unicode="&#xe916;" glyph-name="zengjia" d="M512 874.667c235.637 0 426.667-191.029 426.667-426.667s-191.029-426.667-426.667-426.667-426.667 191.029-426.667 426.667 191.029 426.667 426.667 426.667zM512 640c-17.673 0-32-14.327-32-32v0-128h-128c-17.673 0-32-14.327-32-32s14.327-32 32-32v0h128v-128c0-17.673 14.327-32 32-32s32 14.327 32 32v0 128h128c17.673 0 32 14.327 32 32s-14.327 32-32 32v0h-128v128c0 17.673-14.327 32-32 32v0z" />
<glyph unicode="&#xe931;" glyph-name="folder-plus" d="M576 704l-128 128h-448v-832h1024v704h-448zM704 256h-128v-128h-128v128h-128v128h128v128h128v-128h128v-128z" />
<glyph unicode="&#xe933;" glyph-name="folder-download" d="M576 704l-128 128h-448v-832h1024v704h-448zM512 96l-224 224h160v256h128v-256h160l-224-224z" />
<glyph unicode="&#xe971;" glyph-name="user" d="M576 253.388v52.78c70.498 39.728 128 138.772 128 237.832 0 159.058 0 288-192 288s-192-128.942-192-288c0-99.060 57.502-198.104 128-237.832v-52.78c-217.102-17.748-384-124.42-384-253.388h896c0 128.968-166.898 235.64-384 253.388z" />
<glyph unicode="&#xe986;" glyph-name="search" d="M992.262 88.604l-242.552 206.294c-25.074 22.566-51.89 32.926-73.552 31.926 57.256 67.068 91.842 154.078 91.842 249.176 0 212.078-171.922 384-384 384-212.076 0-384-171.922-384-384s171.922-384 384-384c95.098 0 182.108 34.586 249.176 91.844-1-21.662 9.36-48.478 31.926-73.552l206.294-242.552c35.322-39.246 93.022-42.554 128.22-7.356s31.892 92.898-7.354 128.22zM384 320c-141.384 0-256 114.616-256 256s114.616 256 256 256 256-114.616 256-256-114.614-256-256-256z" />
<glyph unicode="&#xea0a;" glyph-name="plus" d="M992 576h-352v352c0 17.672-14.328 32-32 32h-192c-17.672 0-32-14.328-32-32v-352h-352c-17.672 0-32-14.328-32-32v-192c0-17.672 14.328-32 32-32h352v-352c0-17.672 14.328-32 32-32h192c17.672 0 32 14.328 32 32v352h352c17.672 0 32 14.328 32 32v192c0 17.672-14.328 32-32 32z" />
<glyph unicode="&#xea0f;" glyph-name="cross" d="M1014.662 137.34c-0.004 0.004-0.008 0.008-0.012 0.010l-310.644 310.65 310.644 310.65c0.004 0.004 0.008 0.006 0.012 0.010 3.344 3.346 5.762 7.254 7.312 11.416 4.246 11.376 1.824 24.682-7.324 33.83l-146.746 146.746c-9.148 9.146-22.45 11.566-33.828 7.32-4.16-1.55-8.070-3.968-11.418-7.31 0-0.004-0.004-0.006-0.008-0.010l-310.648-310.652-310.648 310.65c-0.004 0.004-0.006 0.006-0.010 0.010-3.346 3.342-7.254 5.76-11.414 7.31-11.38 4.248-24.682 1.826-33.83-7.32l-146.748-146.748c-9.148-9.148-11.568-22.452-7.322-33.828 1.552-4.16 3.97-8.072 7.312-11.416 0.004-0.002 0.006-0.006 0.010-0.010l310.65-310.648-310.65-310.652c-0.002-0.004-0.006-0.006-0.008-0.010-3.342-3.346-5.76-7.254-7.314-11.414-4.248-11.376-1.826-24.682 7.322-33.83l146.748-146.746c9.15-9.148 22.452-11.568 33.83-7.322 4.16 1.552 8.070 3.97 11.416 7.312 0.002 0.004 0.006 0.006 0.010 0.010l310.648 310.65 310.648-310.65c0.004-0.002 0.008-0.006 0.012-0.008 3.348-3.344 7.254-5.762 11.414-7.314 11.378-4.246 24.684-1.826 33.828 7.322l146.746 146.748c9.148 9.148 11.57 22.454 7.324 33.83-1.552 4.16-3.97 8.068-7.314 11.414z" />
<glyph unicode="&#xea10;" glyph-name="checkmark" d="M864 832l-480-480-224 224-160-160 384-384 640 640z" />
<glyph unicode="&#xea11;" glyph-name="checkmark2" d="M397.434 42.304l-397.868 391.6 197.378 194.27 200.49-197.332 429.62 422.852 197.378-194.27-626.998-617.12zM107.912 433.904l289.524-284.962 518.656 510.482-89.036 87.632-429.62-422.852-200.49 197.334-89.034-87.634z" />
</font>
</defs>
</svg>
